M48
;DRILL file {KiCad 4.0.5} date Thursday, January 05, 2017 'PMt' 10:02:07 PM
;FORMAT={2:4/ absolute / inch / suppress leading zeros}
FMAT,2
INCH,TZ
T1C0.016
T2C0.020
T3C0.022
T4C0.040
%
G90
G05
M72
T1
X41161Y-47559
X41398Y-47067
X41544Y-46495
X42352Y-46198
X45719Y-47070
X45787Y-47638
X46139Y-45077
X46164Y-49075
X46181Y-46555
X46201Y-46181
X46693Y-47539
X47028Y-48937
X47756Y-46102
X48071Y-46476
X48088Y-44274
X48310Y-43153
X48484Y-45827
X48563Y-49508
X48718Y-43169
X50236Y-43858
X50276Y-47953
X50472Y-47087
X51039Y-52991
X51181Y-41791
X51417Y-45433
X53268Y-48839
X53957Y-53504
X54350Y-40591
T2
X40906Y-45787
X41275Y-44311
X41516Y-47972
X42441Y-45768
X45650Y-50000
X46516Y-44409
X48386Y-47598
X49114Y-43760
X49567Y-49055
X50669Y-40551
X50728Y-54724
X51339Y-48110
X51673Y-43268
X51772Y-52697
X52579Y-43878
X52776Y-54724
X53059Y-41063
T4
X40575Y-49902
X41063Y-40260
X41063Y-41260
X41063Y-42260
X41575Y-49902
X42445Y-41417
X42575Y-49902
X43445Y-41417
X44126Y-51614
X44445Y-41417
X45126Y-51614
X45445Y-41417
X46126Y-51614
X46445Y-41417
X46697Y-49803
X47126Y-51614
X47445Y-41417
X47697Y-49803
X48126Y-51614
X48445Y-41417
X49126Y-51614
X49445Y-41417
X50732Y-51614
X50736Y-49941
X51732Y-51614
X51736Y-49941
X52732Y-51614
X52736Y-49941
X53732Y-51614
X53736Y-49941
X54732Y-51614
X54736Y-49941
T2
X55753Y-43544G85X55497Y-43544
G05
X55753Y-46300G85X55497Y-46300
G05
T3
X54562Y-43996G85X54562Y-43878
G05
X54562Y-45965G85X54562Y-45847
G05
T0
M30
