G04 #@! TF.FileFunction,Copper,L2,Bot,Signal*
%FSLAX46Y46*%
G04 Gerber Fmt 4.6, Leading zero omitted, Abs format (unit mm)*
G04 Created by KiCad (PCBNEW 4.0.5) date Thursday, January 05, 2017 'PMt' 10:01:30 PM*
%MOMM*%
%LPD*%
G01*
G04 APERTURE LIST*
%ADD10C,0.150000*%
%ADD11R,1.727200X2.032000*%
%ADD12O,1.727200X2.032000*%
%ADD13R,2.032000X2.032000*%
%ADD14O,2.032000X2.032000*%
%ADD15O,0.950000X1.250000*%
%ADD16O,1.550000X1.000000*%
%ADD17R,2.032000X1.727200*%
%ADD18O,2.032000X1.727200*%
%ADD19C,0.600000*%
%ADD20C,0.700000*%
%ADD21C,0.250000*%
%ADD22C,0.500000*%
G04 APERTURE END LIST*
D10*
D11*
X112080000Y-131100000D03*
D12*
X114620000Y-131100000D03*
X117160000Y-131100000D03*
X119700000Y-131100000D03*
X122240000Y-131100000D03*
X124780000Y-131100000D03*
D13*
X118610000Y-126500000D03*
D14*
X121150000Y-126500000D03*
D15*
X138587460Y-116600900D03*
X138587460Y-111600900D03*
D16*
X141287460Y-117600900D03*
X141287460Y-110600900D03*
D11*
X108140000Y-126750000D03*
D12*
X105600000Y-126750000D03*
X103060000Y-126750000D03*
D11*
X139020000Y-131100000D03*
D12*
X136480000Y-131100000D03*
X133940000Y-131100000D03*
X131400000Y-131100000D03*
X128860000Y-131100000D03*
D11*
X139030000Y-126850000D03*
D12*
X136490000Y-126850000D03*
X133950000Y-126850000D03*
X131410000Y-126850000D03*
X128870000Y-126850000D03*
D11*
X125590000Y-105200000D03*
D12*
X123050000Y-105200000D03*
X120510000Y-105200000D03*
X117970000Y-105200000D03*
X115430000Y-105200000D03*
X112890000Y-105200000D03*
X110350000Y-105200000D03*
X107810000Y-105200000D03*
D17*
X104300000Y-102260000D03*
D18*
X104300000Y-104800000D03*
X104300000Y-107340000D03*
D19*
X116300000Y-121000000D03*
X123350000Y-125750000D03*
D20*
X104839159Y-112550000D03*
D19*
X137050000Y-135900000D03*
D20*
X134050000Y-139000000D03*
X128850000Y-139000000D03*
X131500000Y-133850000D03*
X130400000Y-122200000D03*
X122900000Y-120900000D03*
X118150000Y-112800000D03*
X134770000Y-104300000D03*
X131250000Y-109900000D03*
X133550000Y-111450000D03*
X107800000Y-116250000D03*
X105450000Y-121850000D03*
X103900000Y-116300000D03*
X125900000Y-124600000D03*
X115950000Y-127000000D03*
X124750000Y-111150000D03*
X128700000Y-103000000D03*
D19*
X127700000Y-121800000D03*
X138050000Y-103100000D03*
X129639880Y-134596740D03*
X118600000Y-120750000D03*
X104550000Y-120800000D03*
X116125467Y-119557919D03*
X105150000Y-119550000D03*
X105521158Y-118097143D03*
X117300000Y-118250000D03*
X128200000Y-119600000D03*
X123150000Y-116400000D03*
X117193980Y-114495737D03*
X130000000Y-106150000D03*
X123744819Y-109648418D03*
X121300000Y-117100000D03*
X122707776Y-109607482D03*
X122100000Y-118050000D03*
X107572927Y-117343134D03*
X117350000Y-117300000D03*
X130600000Y-115400000D03*
X117256664Y-124650774D03*
X119450000Y-124300000D03*
X122144062Y-112455669D03*
X127600000Y-111400000D03*
X135300000Y-124050000D03*
D21*
X116300000Y-121000000D02*
X110143720Y-121000000D01*
X110143720Y-121000000D02*
X108140000Y-123003720D01*
X108140000Y-123003720D02*
X108140000Y-126750000D01*
X127650000Y-124450000D02*
X126350000Y-125750000D01*
X126350000Y-125750000D02*
X123350000Y-125750000D01*
X132816000Y-124450000D02*
X127650000Y-124450000D01*
X133950000Y-126850000D02*
X133950000Y-125584000D01*
X133950000Y-125584000D02*
X132816000Y-124450000D01*
D22*
X107810000Y-105200000D02*
X107810000Y-109740000D01*
X118164225Y-118164225D02*
X118164225Y-112814225D01*
X103060000Y-116300000D02*
X103060000Y-114329159D01*
X105000000Y-112550000D02*
X104839159Y-112550000D01*
X103060000Y-114329159D02*
X104839159Y-112550000D01*
X107810000Y-109740000D02*
X105000000Y-112550000D01*
X134050000Y-139000000D02*
X134050000Y-138900000D01*
X134050000Y-138900000D02*
X137050000Y-135900000D01*
X133100000Y-138050000D02*
X134050000Y-139000000D01*
X131500000Y-138050000D02*
X133100000Y-138050000D01*
X131500000Y-138050000D02*
X130550000Y-139000000D01*
X130550000Y-139000000D02*
X128850000Y-139000000D01*
X131500000Y-133850000D02*
X131500000Y-138050000D01*
X131400000Y-131100000D02*
X131400000Y-133750000D01*
X131400000Y-133750000D02*
X131500000Y-133850000D01*
X119900000Y-121300000D02*
X122500000Y-121300000D01*
X122500000Y-121300000D02*
X122900000Y-120900000D01*
X115950000Y-127000000D02*
X115950000Y-123450000D01*
X118164225Y-112814225D02*
X118150000Y-112800000D01*
X117200000Y-122200000D02*
X119000000Y-122200000D01*
X119000000Y-122200000D02*
X119900000Y-121300000D01*
X119900000Y-119900000D02*
X118164225Y-118164225D01*
X119900000Y-121300000D02*
X119900000Y-119900000D01*
X115950000Y-123450000D02*
X117200000Y-122200000D01*
X127200000Y-108650000D02*
X121800000Y-108650000D01*
X121800000Y-108650000D02*
X118150000Y-112300000D01*
X118150000Y-112300000D02*
X118150000Y-112800000D01*
X128450000Y-109900000D02*
X127200000Y-108650000D01*
X131250000Y-109900000D02*
X128450000Y-109900000D01*
X132750000Y-109900000D02*
X132750000Y-106320000D01*
X132750000Y-106320000D02*
X134770000Y-104300000D01*
X133550000Y-110700000D02*
X132750000Y-109900000D01*
X132750000Y-109900000D02*
X131250000Y-109900000D01*
X133550000Y-111450000D02*
X133550000Y-110700000D01*
X128800000Y-123800000D02*
X126700000Y-123800000D01*
X126700000Y-123800000D02*
X125900000Y-124600000D01*
X130400000Y-122200000D02*
X128800000Y-123800000D01*
X130400000Y-117450000D02*
X130400000Y-122200000D01*
X131900000Y-115950000D02*
X130400000Y-117450000D01*
X131900000Y-113100000D02*
X131900000Y-115950000D01*
X133550000Y-111450000D02*
X131900000Y-113100000D01*
X107750000Y-116300000D02*
X107800000Y-116250000D01*
X103900000Y-116300000D02*
X107750000Y-116300000D01*
X103060000Y-126750000D02*
X103060000Y-121900000D01*
X103060000Y-121900000D02*
X103060000Y-116300000D01*
X105450000Y-121850000D02*
X103110000Y-121850000D01*
X103110000Y-121850000D02*
X103060000Y-121900000D01*
X103900000Y-116300000D02*
X103060000Y-116300000D01*
X112900000Y-127000000D02*
X111634000Y-128266000D01*
X111634000Y-128266000D02*
X104423600Y-128266000D01*
X104423600Y-128266000D02*
X103060000Y-126902400D01*
X103060000Y-126902400D02*
X103060000Y-126750000D01*
X115950000Y-127000000D02*
X112900000Y-127000000D01*
X121613160Y-124600000D02*
X125900000Y-124600000D01*
X121150000Y-126500000D02*
X121150000Y-125063160D01*
X121150000Y-125063160D02*
X121613160Y-124600000D01*
X115900000Y-128350000D02*
X120736840Y-128350000D01*
X114677600Y-128350000D02*
X115900000Y-128350000D01*
X115900000Y-128350000D02*
X115900000Y-127050000D01*
X115900000Y-127050000D02*
X115950000Y-127000000D01*
X120736840Y-128350000D02*
X121150000Y-127936840D01*
X121150000Y-127936840D02*
X121150000Y-126500000D01*
X112080000Y-131100000D02*
X112080000Y-130947600D01*
X112080000Y-130947600D02*
X114677600Y-128350000D01*
D21*
X123600000Y-112650000D02*
X124750000Y-111500000D01*
X124750000Y-111500000D02*
X124750000Y-111150000D01*
X128700000Y-103000000D02*
X137950000Y-103000000D01*
X137950000Y-103000000D02*
X138050000Y-103100000D01*
X127700000Y-121800000D02*
X127250000Y-121800000D01*
X122250000Y-116800000D02*
X122250000Y-114000000D01*
X127250000Y-121800000D02*
X122250000Y-116800000D01*
X122250000Y-114000000D02*
X123600000Y-112650000D01*
X128293629Y-134596740D02*
X129639880Y-134596740D01*
X124780000Y-131100000D02*
X124796889Y-131100000D01*
X124796889Y-131100000D02*
X128293629Y-134596740D01*
X104550000Y-120800000D02*
X105002005Y-120347995D01*
X105002005Y-120347995D02*
X118197995Y-120347995D01*
X118197995Y-120347995D02*
X118600000Y-120750000D01*
X105150000Y-119700000D02*
X105292081Y-119557919D01*
X105292081Y-119557919D02*
X116125467Y-119557919D01*
X105150000Y-119550000D02*
X105150000Y-119700000D01*
X105674015Y-118250000D02*
X105521158Y-118097143D01*
X117300000Y-118250000D02*
X105674015Y-118250000D01*
X126350000Y-119600000D02*
X128200000Y-119600000D01*
X123150000Y-116400000D02*
X126350000Y-119600000D01*
X130000000Y-106150000D02*
X130000000Y-106170393D01*
X117169508Y-114471265D02*
X117193980Y-114495737D01*
X130000000Y-106170393D02*
X128653847Y-107516546D01*
X128653847Y-107516546D02*
X121481304Y-107516546D01*
X121481304Y-107516546D02*
X117169508Y-111828342D01*
X117169508Y-111828342D02*
X117169508Y-114471265D01*
X123744819Y-109705181D02*
X123744819Y-109648418D01*
X121300000Y-112150000D02*
X123744819Y-109705181D01*
X121300000Y-117100000D02*
X121300000Y-112150000D01*
X120400000Y-111915258D02*
X122707776Y-109607482D01*
X120400000Y-117600000D02*
X120400000Y-111915258D01*
X120850000Y-118050000D02*
X120400000Y-117600000D01*
X122100000Y-118050000D02*
X120850000Y-118050000D01*
X117350000Y-117300000D02*
X107616061Y-117300000D01*
X107616061Y-117300000D02*
X107572927Y-117343134D01*
X130600000Y-115400000D02*
X129296942Y-116703058D01*
X129296942Y-116703058D02*
X129296942Y-121244903D01*
X129296942Y-121244903D02*
X127676302Y-122865543D01*
X120884457Y-122865543D02*
X119450000Y-124300000D01*
X127676302Y-122865543D02*
X120884457Y-122865543D01*
X117607438Y-124300000D02*
X117256664Y-124650774D01*
X119450000Y-124300000D02*
X117607438Y-124300000D01*
X127600000Y-111400000D02*
X126301942Y-110101942D01*
X126301942Y-110101942D02*
X124497789Y-110101942D01*
X124497789Y-110101942D02*
X122144062Y-112455669D01*
X135300000Y-124050000D02*
X136382400Y-124050000D01*
X136382400Y-124050000D02*
X139030000Y-126697600D01*
X139030000Y-126697600D02*
X139030000Y-126850000D01*
M02*
