G04 #@! TF.FileFunction,Soldermask,Bot*
%FSLAX46Y46*%
G04 Gerber Fmt 4.6, Leading zero omitted, Abs format (unit mm)*
G04 Created by KiCad (PCBNEW 4.0.5) date Thursday, January 05, 2017 'PMt' 10:01:30 PM*
%MOMM*%
%LPD*%
G01*
G04 APERTURE LIST*
%ADD10C,0.150000*%
%ADD11R,1.727200X2.032000*%
%ADD12O,1.727200X2.032000*%
%ADD13R,2.032000X2.032000*%
%ADD14O,2.032000X2.032000*%
%ADD15O,0.950000X1.250000*%
%ADD16O,1.550000X1.000000*%
%ADD17R,2.032000X1.727200*%
%ADD18O,2.032000X1.727200*%
%ADD19C,0.600000*%
%ADD20C,0.700000*%
G04 APERTURE END LIST*
D10*
D11*
X112080000Y-131100000D03*
D12*
X114620000Y-131100000D03*
X117160000Y-131100000D03*
X119700000Y-131100000D03*
X122240000Y-131100000D03*
X124780000Y-131100000D03*
D13*
X118610000Y-126500000D03*
D14*
X121150000Y-126500000D03*
D15*
X138587460Y-116600900D03*
X138587460Y-111600900D03*
D16*
X141287460Y-117600900D03*
X141287460Y-110600900D03*
D11*
X108140000Y-126750000D03*
D12*
X105600000Y-126750000D03*
X103060000Y-126750000D03*
D11*
X139020000Y-131100000D03*
D12*
X136480000Y-131100000D03*
X133940000Y-131100000D03*
X131400000Y-131100000D03*
X128860000Y-131100000D03*
D11*
X139030000Y-126850000D03*
D12*
X136490000Y-126850000D03*
X133950000Y-126850000D03*
X131410000Y-126850000D03*
X128870000Y-126850000D03*
D11*
X125590000Y-105200000D03*
D12*
X123050000Y-105200000D03*
X120510000Y-105200000D03*
X117970000Y-105200000D03*
X115430000Y-105200000D03*
X112890000Y-105200000D03*
X110350000Y-105200000D03*
X107810000Y-105200000D03*
D17*
X104300000Y-102260000D03*
D18*
X104300000Y-104800000D03*
X104300000Y-107340000D03*
D19*
X116300000Y-121000000D03*
X123350000Y-125750000D03*
D20*
X104839159Y-112550000D03*
D19*
X137050000Y-135900000D03*
D20*
X134050000Y-139000000D03*
X128850000Y-139000000D03*
X131500000Y-133850000D03*
X130400000Y-122200000D03*
X122900000Y-120900000D03*
X118150000Y-112800000D03*
X134770000Y-104300000D03*
X131250000Y-109900000D03*
X133550000Y-111450000D03*
X107800000Y-116250000D03*
X105450000Y-121850000D03*
X103900000Y-116300000D03*
X125900000Y-124600000D03*
X115950000Y-127000000D03*
X124750000Y-111150000D03*
X128700000Y-103000000D03*
D19*
X127700000Y-121800000D03*
X138050000Y-103100000D03*
X129639880Y-134596740D03*
X118600000Y-120750000D03*
X104550000Y-120800000D03*
X116125467Y-119557919D03*
X105150000Y-119550000D03*
X105521158Y-118097143D03*
X117300000Y-118250000D03*
X128200000Y-119600000D03*
X123150000Y-116400000D03*
X117193980Y-114495737D03*
X130000000Y-106150000D03*
X123744819Y-109648418D03*
X121300000Y-117100000D03*
X122707776Y-109607482D03*
X122100000Y-118050000D03*
X107572927Y-117343134D03*
X117350000Y-117300000D03*
X130600000Y-115400000D03*
X117256664Y-124650774D03*
X119450000Y-124300000D03*
X122144062Y-112455669D03*
X127600000Y-111400000D03*
X135300000Y-124050000D03*
M02*
